<mxfile host="app.diagrams.net" modified="2024-06-30T23:12:41.307Z" agent="Mozilla/5.0 (Windows NT 10.0; Win64; x64) AppleWebKit/537.36 (KHTML, like Gecko) Chrome/126.0.0.0 Safari/537.36" version="24.6.4" etag="g_aScOlwt_gutKAdStMx" type="github">
  <diagram name="PÃ¡gina-1" id="Lpu6dTJjQdKQfVYx-AO3">
    <mxGraphModel>
      <root>
        <mxCell id="0" />
        <mxCell id="1" parent="0" />
      </root>
    </mxGraphModel>
  </diagram>
</mxfile>
